PathFileType	4	(X/Y/Z)	C:\Users\WrightLab\Desktop\Jo\P4V16.trc
DataRate	CameraRate	NumFrames	NumMarkers	Units	OrigDataRate	OrigDataStartFrame	OrigNumFrames
100.00	100.00	       7	19	mm	100.00	197	       525
Frame#	Time	Headset_Front			Headset_Back			Headset_Left			Headset_Right			Left_Shoulder			Right_Shoulder			Sternum			C7			Left Elbow			Right Elbow			Left Wrist			Right Wrist			Left ASIS			Right ASIS			S2			Left Knee			Right Knee			Left Ankle			Right Ankle			
		X1	Y1	Z1	X2	Y2	Z2	X3	Y3	Z3	X4	Y4	Z4	X5	Y5	Z5	X6	Y6	Z6	X7	Y7	Z7	X8	Y8	Z8	X9	Y9	Z9	X10	Y10	Z10	X11	Y11	Z11	X12	Y12	Z12	X13	Y13	Z13	X14	Y14	Z14	X15	Y15	Z15	X16	Y16	Z16	X17	Y17	Z17	X18	Y18	Z18	X19	Y19	Z19	

197	1.960													-387.72360	1499.07629	-57.67074	-596.16711	1539.66296	165.85056	-413.52740	1452.13867	123.98908	-529.83130	1555.16296	14.34118	-279.85767	1149.37939	-152.26645	-717.43604	1229.91211	338.58365	-182.86150	895.18042	5.64753	-601.03693	996.24762	487.57059	-384.66537	1020.69745	14.45395	-609.77545	1044.16980	263.58163	-616.73529	1045.60791	-8.46003	-246.89691	611.07507	150.83855	-670.43091	554.75397	246.13524	-479.94522	151.86980	79.87550	-749.08624	56.85486	121.63232	
198	1.970													-383.67062	1498.87024	-51.73096	-588.40790	1539.10107	173.66324	-408.27402	1450.40076	128.44272	-523.97382	1554.51172	21.78951	-278.96915	1148.99548	-153.10277	-708.77063	1231.61633	350.71725	-176.26535	893.78033	-1.28470	-586.86615	1001.23590	500.71127	-379.42719	1020.58875	20.04848	-602.14618	1042.51978	270.89713	-611.66821	1044.94141	-1.11136	-237.24298	612.83325	154.30806	-666.81958	554.29785	248.43561	-451.89117	141.50990	98.88931	-748.62311	57.36717	121.78776	
199	1.980													-379.64221	1498.50964	-47.77168	-581.19464	1538.88428	181.62555	-401.35336	1448.68860	133.67401	-517.84698	1553.92566	29.08872	-277.69714	1149.45874	-154.36533	-699.00275	1232.10779	361.77908	-170.44740	891.86975	-7.78769	-572.23749	1006.67596	513.71411	-373.99707	1020.14771	24.85943	-595.18835	1041.82617	278.00333	-606.29755	1044.99011	5.40333	-229.52765	613.70514	157.26271	-663.17865	553.93854	251.04887	-423.07098	130.78519	119.11506	-748.51697	58.16302	121.91129	
200	1.990													-374.21704	1497.84363	-42.29961	-573.13611	1537.84863	188.81473	-393.82471	1448.84949	139.81990	-511.58984	1553.19995	35.53519	-276.70099	1149.26599	-155.26981	-689.49823	1232.67273	372.42331	-165.10562	890.29065	-14.68856	-558.55457	1010.86023	526.08911	-369.94101	1019.48303	30.97936	-587.76624	1040.21863	285.19266	-600.78644	1044.01294	12.78959	-221.26501	613.85773	160.55965	-659.21381	553.43280	253.99677	-393.19946	120.90181	136.79021	-747.50330	58.05886	121.75187	
201	2.000													-368.75406	1496.05396	-36.35734	-565.35437	1536.87903	196.31740	-386.18356	1447.23669	144.08035	-505.29880	1552.20850	43.16866	-275.49783	1148.98669	-155.76166	-679.76044	1233.08423	382.59128	-159.50677	889.65784	-20.08157	-544.96094	1015.36914	537.58392	-363.59875	1018.87305	36.26143	-579.98975	1038.91760	292.44730	-595.06555	1043.45789	19.92102	-213.94865	613.66656	163.11931	-654.84753	551.93170	256.24124	-361.77640	111.40052	153.96451	-746.67157	58.65757	121.50499	
202	2.010	-427.44937	1705.56750	224.09363										-362.89975	1495.26868	-31.33142	-557.86853	1535.99780	203.59964	-379.56644	1445.71912	150.31042	-498.77551	1551.13550	49.60490	-274.55121	1148.86511	-156.22058	-670.00635	1233.20032	391.77042	-153.49812	887.97974	-26.06977	-531.13788	1019.63763	549.00305	-357.20319	1018.19006	42.24452	-572.91736	1037.94775	300.79340	-588.93921	1042.17102	27.74890	-206.86638	611.70361	166.84119	-650.42804	551.36407	258.55341	-329.92801	103.10921	169.16544	-746.11627	59.07749	121.54846	
203	2.020	-420.83517	1703.85767	231.04439										-357.15997	1494.32739	-25.98232	-550.26758	1534.67798	210.50273	-372.12985	1443.98328	155.66068	-492.04221	1550.05664	55.72336	-273.20602	1148.63391	-155.68275	-661.31793	1233.42554	401.65121	-149.52998	885.42462	-32.84131	-516.45496	1024.03601	559.74030	-350.57370	1017.02301	48.06033	-565.45618	1036.39331	307.71436	-582.32391	1041.53333	34.40047	-200.14922	609.78619	169.12766	-645.97772	550.64874	261.15594	-297.47205	95.02859	184.02847	-745.57037	59.85156	121.36455	
